<?xml version="1.0" ?><!DOCTYPE svg  PUBLIC '-//W3C//DTD SVG 1.1//EN'  'http://www.w3.org/Graphics/SVG/1.1/DTD/svg11.dtd'><svg height="165px" style="enable-background:new 0 0 166 165;" version="1.1" viewBox="0 0 166 165" width="166px" xml:space="preserve" xmlns="http://www.w3.org/2000/svg" xmlns:xlink="http://www.w3.org/1999/xlink"><style type="text/css">
<![CDATA[
	.st0{fill:#EF3E42;}
	.st1{fill:#54B948;}
	.st2{fill:#FFC425;}
	.st3{fill:#FFFFFF;}
	.st4{fill:none;}
]]>
</style><defs/><path d="M159.6,3.5c0.3,0,0.6,0.3,0.6,0.6v151.8c0,0.3-0.3,0.6-0.6,0.6H7.8c-0.3,0-0.6-0.3-0.6-0.6V4.1c0-0.3,0.3-0.6,0.6-0.6H159.6  L159.6,3.5z"/><polygon class="st2" points="16.7,13.1 150.6,13.1 150.6,147 16.7,147 16.7,13.1 "/><polygon points="135.1,106.7 110.4,131.5 83.7,104.8 57,131.5 32.2,106.7 58.9,80 32.2,53.5 57.2,28.6 83.7,55.1 110.2,28.6   135.1,53.5 108.4,80 135.1,106.7 "/><rect class="st4" height="165" id="_x3C_Slice_x3E__48_" width="166"/></svg>